<svg width="187" height="31" viewBox="0 0 187 31" fill="none" xmlns="http://www.w3.org/2000/svg">
<path d="M46.1523 22.9094H42.7539V9.10467C42.7539 8.14373 42.9414 7.33514 43.3164 6.67889C43.6992 6.01483 44.2344 5.51483 44.9219 5.17889C45.6172 4.83514 46.4414 4.66327 47.3945 4.66327C47.707 4.66327 48.0078 4.6867 48.2969 4.73358C48.5859 4.77264 48.8672 4.82342 49.1406 4.88592L49.1055 7.42889C48.957 7.38983 48.8008 7.36248 48.6367 7.34686C48.4727 7.33123 48.2812 7.32342 48.0625 7.32342C47.6562 7.32342 47.3086 7.39373 47.0195 7.53436C46.7383 7.66717 46.5234 7.86639 46.375 8.13202C46.2266 8.39764 46.1523 8.72186 46.1523 9.10467V22.9094ZM48.6836 10.2297V12.6203H40.8672V10.2297H48.6836ZM49.9141 16.6984V16.4523C49.9141 15.5226 50.0469 14.6672 50.3125 13.8859C50.5781 13.0969 50.9648 12.4133 51.4727 11.8351C51.9805 11.257 52.6055 10.8078 53.3477 10.4875C54.0898 10.1594 54.9414 9.9953 55.9023 9.9953C56.8633 9.9953 57.7188 10.1594 58.4688 10.4875C59.2188 10.8078 59.8477 11.257 60.3555 11.8351C60.8711 12.4133 61.2617 13.0969 61.5273 13.8859C61.793 14.6672 61.9258 15.5226 61.9258 16.4523V16.6984C61.9258 17.6203 61.793 18.4758 61.5273 19.2648C61.2617 20.0461 60.8711 20.7297 60.3555 21.3156C59.8477 21.8937 59.2227 22.343 58.4805 22.6633C57.7383 22.9836 56.8867 23.1437 55.9258 23.1437C54.9648 23.1437 54.1094 22.9836 53.3594 22.6633C52.6172 22.343 51.9883 21.8937 51.4727 21.3156C50.9648 20.7297 50.5781 20.0461 50.3125 19.2648C50.0469 18.4758 49.9141 17.6203 49.9141 16.6984ZM53.2891 16.4523V16.6984C53.2891 17.2297 53.3359 17.7258 53.4297 18.1867C53.5234 18.6476 53.6719 19.0539 53.875 19.4055C54.0859 19.7492 54.3594 20.0187 54.6953 20.214C55.0312 20.4094 55.4414 20.507 55.9258 20.507C56.3945 20.507 56.7969 20.4094 57.1328 20.214C57.4688 20.0187 57.7383 19.7492 57.9414 19.4055C58.1445 19.0539 58.293 18.6476 58.3867 18.1867C58.4883 17.7258 58.5391 17.2297 58.5391 16.6984V16.4523C58.5391 15.9367 58.4883 15.4523 58.3867 14.9992C58.293 14.5383 58.1406 14.132 57.9297 13.7805C57.7266 13.4211 57.457 13.1398 57.1211 12.9367C56.7852 12.7336 56.3789 12.632 55.9023 12.632C55.4258 12.632 55.0195 12.7336 54.6836 12.9367C54.3555 13.1398 54.0859 13.4211 53.875 13.7805C53.6719 14.132 53.5234 14.5383 53.4297 14.9992C53.3359 15.4523 53.2891 15.9367 53.2891 16.4523ZM63.4609 16.6984V16.4523C63.4609 15.5226 63.5938 14.6672 63.8594 13.8859C64.125 13.0969 64.5117 12.4133 65.0195 11.8351C65.5273 11.257 66.1523 10.8078 66.8945 10.4875C67.6367 10.1594 68.4883 9.9953 69.4492 9.9953C70.4102 9.9953 71.2656 10.1594 72.0156 10.4875C72.7656 10.8078 73.3945 11.257 73.9023 11.8351C74.418 12.4133 74.8086 13.0969 75.0742 13.8859C75.3398 14.6672 75.4727 15.5226 75.4727 16.4523V16.6984C75.4727 17.6203 75.3398 18.4758 75.0742 19.2648C74.8086 20.0461 74.418 20.7297 73.9023 21.3156C73.3945 21.8937 72.7695 22.343 72.0273 22.6633C71.2852 22.9836 70.4336 23.1437 69.4727 23.1437C68.5117 23.1437 67.6562 22.9836 66.9062 22.6633C66.1641 22.343 65.5352 21.8937 65.0195 21.3156C64.5117 20.7297 64.125 20.0461 63.8594 19.2648C63.5938 18.4758 63.4609 17.6203 63.4609 16.6984ZM66.8359 16.4523V16.6984C66.8359 17.2297 66.8828 17.7258 66.9766 18.1867C67.0703 18.6476 67.2188 19.0539 67.4219 19.4055C67.6328 19.7492 67.9062 20.0187 68.2422 20.214C68.5781 20.4094 68.9883 20.507 69.4727 20.507C69.9414 20.507 70.3438 20.4094 70.6797 20.214C71.0156 20.0187 71.2852 19.7492 71.4883 19.4055C71.6914 19.0539 71.8398 18.6476 71.9336 18.1867C72.0352 17.7258 72.0859 17.2297 72.0859 16.6984V16.4523C72.0859 15.9367 72.0352 15.4523 71.9336 14.9992C71.8398 14.5383 71.6875 14.132 71.4766 13.7805C71.2734 13.4211 71.0039 13.1398 70.668 12.9367C70.332 12.7336 69.9258 12.632 69.4492 12.632C68.9727 12.632 68.5664 12.7336 68.2305 12.9367C67.9023 13.1398 67.6328 13.4211 67.4219 13.7805C67.2188 14.132 67.0703 14.5383 66.9766 14.9992C66.8828 15.4523 66.8359 15.9367 66.8359 16.4523ZM85.0352 20.1437V4.90936H88.4336V22.9094H85.375L85.0352 20.1437ZM77.0195 16.7219V16.4758C77.0195 15.507 77.1289 14.6281 77.3477 13.839C77.5664 13.0422 77.8867 12.3586 78.3086 11.7883C78.7305 11.218 79.25 10.7765 79.8672 10.464C80.4844 10.1515 81.1875 9.9953 81.9766 9.9953C82.7188 9.9953 83.3672 10.1515 83.9219 10.464C84.4844 10.7765 84.9609 11.2219 85.3516 11.8C85.75 12.3703 86.0703 13.0461 86.3125 13.8273C86.5547 14.6008 86.7305 15.4484 86.8398 16.3703V16.9094C86.7305 17.7922 86.5547 18.6125 86.3125 19.3703C86.0703 20.1281 85.75 20.7922 85.3516 21.3625C84.9609 21.925 84.4844 22.3625 83.9219 22.675C83.3594 22.9875 82.7031 23.1437 81.9531 23.1437C81.1641 23.1437 80.4609 22.9836 79.8438 22.6633C79.2344 22.343 78.7188 21.8937 78.2969 21.3156C77.8828 20.7375 77.5664 20.0578 77.3477 19.2765C77.1289 18.4953 77.0195 17.6437 77.0195 16.7219ZM80.3945 16.4758V16.7219C80.3945 17.2453 80.4336 17.7336 80.5117 18.1867C80.5977 18.6398 80.7344 19.0422 80.9219 19.3937C81.1172 19.7375 81.3672 20.007 81.6719 20.2023C81.9844 20.3898 82.3633 20.4836 82.8086 20.4836C83.3867 20.4836 83.8633 20.3547 84.2383 20.0969C84.6133 19.8312 84.8984 19.468 85.0938 19.007C85.2969 18.5461 85.4141 18.0148 85.4453 17.4133V15.8781C85.4219 15.3859 85.3516 14.9445 85.2344 14.5539C85.125 14.1555 84.9609 13.8156 84.7422 13.5344C84.5312 13.2531 84.2656 13.0344 83.9453 12.8781C83.6328 12.7219 83.2617 12.6437 82.832 12.6437C82.3945 12.6437 82.0195 12.7453 81.707 12.9484C81.3945 13.1437 81.1406 13.4133 80.9453 13.757C80.7578 14.1008 80.6172 14.507 80.5234 14.9758C80.4375 15.4367 80.3945 15.9367 80.3945 16.4758ZM102.883 23.1437C101.898 23.1437 101.016 22.9875 100.234 22.675C99.4531 22.3547 98.7891 21.9133 98.2422 21.3508C97.7031 20.7883 97.2891 20.1359 97 19.3937C96.7109 18.6437 96.5664 17.8469 96.5664 17.0031V16.5344C96.5664 15.5734 96.7031 14.6945 96.9766 13.8976C97.25 13.1008 97.6406 12.4094 98.1484 11.8234C98.6641 11.2375 99.2891 10.7883 100.023 10.4758C100.758 10.1555 101.586 9.9953 102.508 9.9953C103.406 9.9953 104.203 10.1437 104.898 10.4406C105.594 10.7375 106.176 11.1594 106.645 11.7062C107.121 12.2531 107.48 12.9094 107.723 13.675C107.965 14.4328 108.086 15.2765 108.086 16.2062V17.6125H98.0078V15.3625H104.77V15.1047C104.77 14.6359 104.684 14.218 104.512 13.8508C104.348 13.4758 104.098 13.1789 103.762 12.9601C103.426 12.7414 102.996 12.632 102.473 12.632C102.027 12.632 101.645 12.7297 101.324 12.925C101.004 13.1203 100.742 13.3937 100.539 13.7453C100.344 14.0969 100.195 14.5109 100.094 14.9875C100 15.4562 99.9531 15.9719 99.9531 16.5344V17.0031C99.9531 17.5109 100.023 17.9797 100.164 18.4094C100.312 18.839 100.52 19.2101 100.785 19.5226C101.059 19.8351 101.387 20.0773 101.77 20.2492C102.16 20.4211 102.602 20.507 103.094 20.507C103.703 20.507 104.27 20.3898 104.793 20.1555C105.324 19.9133 105.781 19.55 106.164 19.0656L107.805 20.8469C107.539 21.2297 107.176 21.5969 106.715 21.9484C106.262 22.3 105.715 22.589 105.074 22.8156C104.434 23.0344 103.703 23.1437 102.883 23.1437ZM112.727 10.2297L114.824 14.0851L116.98 10.2297H120.578L116.992 16.4289L120.742 22.9094H117.133L114.848 18.8312L112.562 22.9094H108.953L112.703 16.4289L109.117 10.2297H112.727ZM125.594 12.6672V27.7844H122.219V10.2297H125.348L125.594 12.6672ZM133.621 16.4289V16.675C133.621 17.5969 133.512 18.4523 133.293 19.2414C133.082 20.0305 132.77 20.718 132.355 21.3039C131.941 21.882 131.426 22.3351 130.809 22.6633C130.199 22.9836 129.496 23.1437 128.699 23.1437C127.926 23.1437 127.254 22.9875 126.684 22.675C126.113 22.3625 125.633 21.925 125.242 21.3625C124.859 20.7922 124.551 20.132 124.316 19.382C124.082 18.632 123.902 17.8273 123.777 16.968V16.3234C123.902 15.4015 124.082 14.5578 124.316 13.7922C124.551 13.0187 124.859 12.3508 125.242 11.7883C125.633 11.218 126.109 10.7765 126.672 10.464C127.242 10.1515 127.91 9.9953 128.676 9.9953C129.48 9.9953 130.188 10.1476 130.797 10.4523C131.414 10.757 131.93 11.1945 132.344 11.7648C132.766 12.3351 133.082 13.0148 133.293 13.8039C133.512 14.593 133.621 15.468 133.621 16.4289ZM130.234 16.675V16.4289C130.234 15.8898 130.188 15.3937 130.094 14.9406C130.008 14.4797 129.867 14.0773 129.672 13.7336C129.484 13.3898 129.234 13.1242 128.922 12.9367C128.617 12.7414 128.246 12.6437 127.809 12.6437C127.348 12.6437 126.953 12.718 126.625 12.8664C126.305 13.0148 126.043 13.2297 125.84 13.5109C125.637 13.7922 125.484 14.1281 125.383 14.5187C125.281 14.9094 125.219 15.3508 125.195 15.843V17.4719C125.234 18.05 125.344 18.5695 125.523 19.0305C125.703 19.4836 125.98 19.843 126.355 20.1086C126.73 20.3742 127.223 20.507 127.832 20.507C128.277 20.507 128.652 20.4094 128.957 20.214C129.262 20.0109 129.508 19.7336 129.695 19.382C129.891 19.0305 130.027 18.6242 130.105 18.1633C130.191 17.7023 130.234 17.2062 130.234 16.675ZM139.281 4.90936V22.9094H135.895V4.90936H139.281ZM141.531 16.6984V16.4523C141.531 15.5226 141.664 14.6672 141.93 13.8859C142.195 13.0969 142.582 12.4133 143.09 11.8351C143.598 11.257 144.223 10.8078 144.965 10.4875C145.707 10.1594 146.559 9.9953 147.52 9.9953C148.48 9.9953 149.336 10.1594 150.086 10.4875C150.836 10.8078 151.465 11.257 151.973 11.8351C152.488 12.4133 152.879 13.0969 153.145 13.8859C153.41 14.6672 153.543 15.5226 153.543 16.4523V16.6984C153.543 17.6203 153.41 18.4758 153.145 19.2648C152.879 20.0461 152.488 20.7297 151.973 21.3156C151.465 21.8937 150.84 22.343 150.098 22.6633C149.355 22.9836 148.504 23.1437 147.543 23.1437C146.582 23.1437 145.727 22.9836 144.977 22.6633C144.234 22.343 143.605 21.8937 143.09 21.3156C142.582 20.7297 142.195 20.0461 141.93 19.2648C141.664 18.4758 141.531 17.6203 141.531 16.6984ZM144.906 16.4523V16.6984C144.906 17.2297 144.953 17.7258 145.047 18.1867C145.141 18.6476 145.289 19.0539 145.492 19.4055C145.703 19.7492 145.977 20.0187 146.312 20.214C146.648 20.4094 147.059 20.507 147.543 20.507C148.012 20.507 148.414 20.4094 148.75 20.214C149.086 20.0187 149.355 19.7492 149.559 19.4055C149.762 19.0539 149.91 18.6476 150.004 18.1867C150.105 17.7258 150.156 17.2297 150.156 16.6984V16.4523C150.156 15.9367 150.105 15.4523 150.004 14.9992C149.91 14.5383 149.758 14.132 149.547 13.7805C149.344 13.4211 149.074 13.1398 148.738 12.9367C148.402 12.7336 147.996 12.632 147.52 12.632C147.043 12.632 146.637 12.7336 146.301 12.9367C145.973 13.1398 145.703 13.4211 145.492 13.7805C145.289 14.132 145.141 14.5383 145.047 14.9992C144.953 15.4523 144.906 15.9367 144.906 16.4523ZM158.992 12.9953V22.9094H155.617V10.2297H158.793L158.992 12.9953ZM162.812 10.1476L162.754 13.2765C162.59 13.2531 162.391 13.2336 162.156 13.218C161.93 13.1945 161.723 13.1828 161.535 13.1828C161.059 13.1828 160.645 13.2453 160.293 13.3703C159.949 13.4875 159.66 13.6633 159.426 13.8976C159.199 14.132 159.027 14.4172 158.91 14.7531C158.801 15.089 158.738 15.4719 158.723 15.9015L158.043 15.6906C158.043 14.8703 158.125 14.1164 158.289 13.4289C158.453 12.7336 158.691 12.1281 159.004 11.6125C159.324 11.0969 159.715 10.6984 160.176 10.4172C160.637 10.1359 161.164 9.9953 161.758 9.9953C161.945 9.9953 162.137 10.0109 162.332 10.0422C162.527 10.0656 162.688 10.1008 162.812 10.1476ZM170.008 23.1437C169.023 23.1437 168.141 22.9875 167.359 22.675C166.578 22.3547 165.914 21.9133 165.367 21.3508C164.828 20.7883 164.414 20.1359 164.125 19.3937C163.836 18.6437 163.691 17.8469 163.691 17.0031V16.5344C163.691 15.5734 163.828 14.6945 164.102 13.8976C164.375 13.1008 164.766 12.4094 165.273 11.8234C165.789 11.2375 166.414 10.7883 167.148 10.4758C167.883 10.1555 168.711 9.9953 169.633 9.9953C170.531 9.9953 171.328 10.1437 172.023 10.4406C172.719 10.7375 173.301 11.1594 173.77 11.7062C174.246 12.2531 174.605 12.9094 174.848 13.675C175.09 14.4328 175.211 15.2765 175.211 16.2062V17.6125H165.133V15.3625H171.895V15.1047C171.895 14.6359 171.809 14.218 171.637 13.8508C171.473 13.4758 171.223 13.1789 170.887 12.9601C170.551 12.7414 170.121 12.632 169.598 12.632C169.152 12.632 168.77 12.7297 168.449 12.925C168.129 13.1203 167.867 13.3937 167.664 13.7453C167.469 14.0969 167.32 14.5109 167.219 14.9875C167.125 15.4562 167.078 15.9719 167.078 16.5344V17.0031C167.078 17.5109 167.148 17.9797 167.289 18.4094C167.438 18.839 167.645 19.2101 167.91 19.5226C168.184 19.8351 168.512 20.0773 168.895 20.2492C169.285 20.4211 169.727 20.507 170.219 20.507C170.828 20.507 171.395 20.3898 171.918 20.1555C172.449 19.9133 172.906 19.55 173.289 19.0656L174.93 20.8469C174.664 21.2297 174.301 21.5969 173.84 21.9484C173.387 22.3 172.84 22.589 172.199 22.8156C171.559 23.0344 170.828 23.1437 170.008 23.1437ZM180.508 12.9953V22.9094H177.133V10.2297H180.309L180.508 12.9953ZM184.328 10.1476L184.27 13.2765C184.105 13.2531 183.906 13.2336 183.672 13.218C183.445 13.1945 183.238 13.1828 183.051 13.1828C182.574 13.1828 182.16 13.2453 181.809 13.3703C181.465 13.4875 181.176 13.6633 180.941 13.8976C180.715 14.132 180.543 14.4172 180.426 14.7531C180.316 15.089 180.254 15.4719 180.238 15.9015L179.559 15.6906C179.559 14.8703 179.641 14.1164 179.805 13.4289C179.969 12.7336 180.207 12.1281 180.52 11.6125C180.84 11.0969 181.23 10.6984 181.691 10.4172C182.152 10.1359 182.68 9.9953 183.273 9.9953C183.461 9.9953 183.652 10.0109 183.848 10.0422C184.043 10.0656 184.203 10.1008 184.328 10.1476Z" fill="#4D585E"/>
<path d="M15.5391 0.909359L28.5294 8.40936V23.4094L15.5391 30.9094L2.54868 23.4094V8.40936L15.5391 0.909359Z" fill="#4D585E"/>
</svg>
